<?xml version="1.0" standalone="no"?><!DOCTYPE svg PUBLIC "-//W3C//DTD SVG 1.1//EN" "http://www.w3.org/Graphics/SVG/1.1/DTD/svg11.dtd"><svg t="1538221751940" class="icon" style="" viewBox="0 0 1091 1024" version="1.1" xmlns="http://www.w3.org/2000/svg" p-id="890" xmlns:xlink="http://www.w3.org/1999/xlink" width="213.0859375" height="200"><defs><style type="text/css"></style></defs><path d="M805.79257753 862.31520107a578.29689844 578.29689844 0 0 1-56.50737187 34.3924752c-206.23284229 109.81189599-451.95221162 78.60701602-598.53584092-74.94661846 82.55719336 41.34722959 176.6141332 60.41179424 272.56227716 55.94306045 13.72648711-0.76258301 76.97508926 8.41891201 153.88917187-44.62633477 73.60447412-50.75749863 99.05948174-143.36553164 61.20488056-213.52313144-2.44026474-4.57549541-14.74834747-21.35231279-17.69191699-25.6532792-45.23640029-65.36858203-12.39959356-162.68937451 61.20488057-213.52313144 76.91408261-52.92323349 177.78851016-40.47788496 227.93594326 27.25470175 0.94560205 1.29639023 1.9217083 2.62328379 2.82155537 3.93492657s1.79969502 2.69954209 2.68429043 4.04168818a286.53279083 286.53279083 0 0 1 42.94865303 105.14489063c20.02541924 104.30605019-16.6548041 218.49517002-100.37112364 300.97610595a568.32231797 568.32231797 0 0 1-52.14539883 40.58464658z" fill="#729AF2" p-id="891"></path><path d="M445.22826612 927.16522666c-141.33706172 0-280.79817012-57.40721895-381.29130615-165.77020898a7.1530251 7.1530251 0 0 1 8.69344188-11.11845411 569.26792089 569.26792089 0 0 0 274.20945557 70.46263301h1.79969502c1.89120498 0 4.40772715 0.18301992 7.5343166 0.39654316 21.35231279 1.52516513 77.95119463 5.42958838 142.14539883-38.8459582a161.66751416 161.66751416 0 0 0 50.01016817-211.90645634c-1.79969502-3.26385352-9.76105722-14.44331425-14.51957344-21.13879043-1.86070166-2.62328379-3.41637011-4.78901865-4.25521055-6.00915059-22.19115411-32.02846963-30.30503291-72.27757969-22.8774788-113.13675703a185.17031016 185.17031016 0 0 1 76.86832763-118.06303975 176.49211992 176.49211992 0 0 1 242.33350254 40.67615655c1.11337031 1.52516513 2.16573487 3.05033027 3.17234355 4.43823047s2.02846992 3.05033027 3.05033027 4.5754954a342.93340107 342.93340107 0 0 1 49.43060508 114.70767716 345.40416914 345.40416914 0 0 1-89.75597344 317.8444333l-0.33553651 0.32028485a517.13777285 517.13777285 0 0 1-51.67259737 40.7371632 525.93797637 525.93797637 0 0 1-56.52262354 33.95017792 516.60396563 516.60396563 0 0 1-238.01728534 57.88002041zM106.29079824 783.14387363c154.5754957 139.43060508 382.89273047 170.55922763 570.32028457 73.45195752a511.84545029 511.84545029 0 0 0 54.90594844-33.03507832 502.74021357 502.74021357 0 0 0 50.13218057-39.47127627 330.33553594 330.33553594 0 0 0 38.52567422-414.53990859c-0.94560205-1.52516513-1.89120498-2.89781367-2.85205958-4.27046309s-1.9217083-2.71479375-2.89781367-4.05693896a161.4234876 161.4234876 0 0 0-222.67412315-37.39705137 170.81850498 170.81850498 0 0 0-70.96593779 108.86629394c-6.78698526 37.10726982 0.50330479 73.48246084 20.52872403 102.44534766 0.82358965 1.18962862 2.31825146 3.29435683 4.13319727 5.85663487 6.95475352 9.77630888 13.36044727 18.85104229 15.38891718 22.51143896a175.83629854 175.83629854 0 0 1-54.41789531 230.55922705c-68.32740234 47.11235362-128.58667998 42.90289805-151.25063555 41.33197794-2.88256201-0.19827158-5.41433672-0.38129151-6.78698525-0.3507882h-1.52516514a584.27554658 584.27554658 0 0 1-240.56431084-51.90137313z m629.35943028 46.31926817z" fill="#0071BC" p-id="892"></path><path d="M399.48856104 828.47178477a177.97153008 177.97153008 0 0 1-29.69496651-2.50127139 175.54651787 175.54651787 0 0 1-112.74021387-69.41026934c-1.082867-1.52516513-2.1504832-2.97407198-3.17234355-4.43823047s-2.02846992-3.05033027-3.05033028-4.57549628a342.94865273 342.94865273 0 0 1-49.43060508-114.70767627 345.4194208 345.4194208 0 0 1 89.81698009-317.84443331l0.33553652-0.32028485a518.08337578 518.08337578 0 0 1 51.67259737-40.75241485 526.18200293 526.18200293 0 0 1 56.50737187-33.95017793c206.47686797-106.97508896 461.13370576-62.53177412 619.21708154 107.89018857a7.1530251 7.1530251 0 0 1-8.69344102 11.11845411 569.31367588 569.31367588 0 0 0-274.2247081-70.46263302h-1.79969502c-1.89120498 0-4.40772715-0.18301992-7.53431573-0.39654316-21.35231279-1.52516513-77.93594297-5.42958838-142.1453997 38.84595821a161.5760042 161.5760042 0 0 0-50.01016728 211.90645635c1.78444336 3.24860185 9.73055391 14.42806347 14.48906924 21.09303544 1.87595332 2.63853545 3.43162177 4.83477363 4.28571474 6.10066055 22.19115411 32.02846963 30.30503291 72.26232803 22.87747793 113.13675703a185.17031016 185.17031016 0 0 1-76.79206933 118.00203311 175.51601455 175.51601455 0 0 1-99.91357383 31.2658875z m-98.22064044-503.304525a330.33553594 330.33553594 0 0 0-38.44941503 414.57041191c0.96085371 1.52516513 1.89120498 2.89781367 2.83680703 4.28571387s1.95221162 2.76054873 2.94356865 4.11794648a161.40823594 161.40823594 0 0 0 222.67412315 37.33604472 170.81850498 170.81850498 0 0 0 70.92018281-108.85104227c6.78698526-37.10726982-0.50330479-73.48246084-20.52872315-102.44534854-0.82358965-1.20488028-2.33350313-3.32486016-4.16370146-5.88713731-6.93950185-9.76105722-13.3451956-18.82053896-15.35841387-22.48093564a175.82104688 175.82104688 0 0 1 54.43314697-230.55922705c68.31215068-47.11235362 128.57142832-42.91814971 151.25063555-41.33197794 2.88256201 0.19827158 5.33807842 0.38129151 6.78698526 0.35078819h1.52516513a584.36705654 584.36705654 0 0 1 240.59481416 51.85561728C822.12709677 186.69750927 593.79461123 155.56888672 406.38230791 252.72191182a511.83019863 511.83019863 0 0 0-54.90594756 33.03507831 503.6553123 503.6553123 0 0 0-50.20843975 39.39501797zM131.41026933 731.18149472a7.1530251 7.1530251 0 0 1-6.6497203-4.5754954 463.65022881 463.65022881 0 0 1 71.8047791-464.16878526 7.1530251 7.1530251 0 0 1 11.07269911 9.04423008A449.38993359 449.38993359 0 0 0 138.04473799 721.32892754a7.1530251 7.1530251 0 0 1-6.64972031 9.79156055z" fill="#0071BC" p-id="893"></path><path d="M158.03965391 728.32943604a4.28571387 4.28571387 0 0 1-3.98068067-2.69954297 460.8439251 460.8439251 0 0 1 71.34722929-461.31672568 4.29181523 4.29181523 0 0 1 6.64972032 5.42958837 452.24199316 452.24199316 0 0 0-70.0355874 452.73004541 4.28571387 4.28571387 0 0 1-3.98068154 5.87188653z" fill="#729AF2" p-id="894"></path><path d="M352.57447901 165.16217568a7.1530251 7.1530251 0 0 1-4.23995977-12.90289746 463.65022881 463.65022881 0 0 1 467.17336055-48.48500302 7.1530251 7.1530251 0 1 1-5.93289229 13.00965996 449.40518526 449.40518526 0 0 0-452.77580127 46.97508867 7.10727011 7.10727011 0 0 1-4.22470722 1.40315185z" fill="#296DE5" p-id="895"></path><path d="M352.55922734 187.87188623a4.28571387 4.28571387 0 0 1-2.54702636-7.74783985 460.82867344 460.82867344 0 0 1 464.29079853-48.17996894 4.29334013 4.29334013 0 1 1-3.56888672 7.80884561 452.25724482 452.25724482 0 0 0-455.64311162 47.28012187 4.27046221 4.27046221 0 0 1-2.53177383 0.83884131z" fill="#729AF2" p-id="896"></path><path d="M772.43721435 405.52821582c8.83070684 0 8.84595849-13.72648711 0-13.7264871s-8.84595849 13.72648711 0 13.7264871zM684.4656834 565.5027957c8.83070684 0 8.84595849-13.72648711-1e-8-13.72648622s-8.84595849 13.72648711 0 13.72648622zM658.47686856 843.43365547c8.83070684 0 8.84595849-13.72648711 0-13.72648711s-8.84595849 13.72648711 0 13.72648711z" fill="#1350A8" p-id="897"></path><path d="M700.464667 555.20793125c5.88713818 0 5.90238984-9.1509917-1e-8-9.1509917s-5.90238984 9.1509917 0 9.1509917zM642.47788496 831.1560752c5.88713818 0 5.90238984-9.1509917 0-9.15099171s-5.90238984 9.1509917 0 9.15099171zM814.50127109 519.21403174c5.88713818 0 5.90238984-9.1509917 0-9.1509917s-5.90238984 9.1509917 0 9.1509917zM744.45043203 703.17946075c5.88713818 0 5.90238984-9.1509917 0-9.15099083s-5.90238984 9.1509917 0 9.15099083z" fill="#FFFFFF" p-id="898"></path></svg>