<?xml version="1.0" standalone="no"?><!DOCTYPE svg PUBLIC "-//W3C//DTD SVG 1.1//EN" "http://www.w3.org/Graphics/SVG/1.1/DTD/svg11.dtd"><svg t="1538228941640" class="icon" style="" viewBox="0 0 1098 1024" version="1.1" xmlns="http://www.w3.org/2000/svg" p-id="890" xmlns:xlink="http://www.w3.org/1999/xlink" width="214.453125" height="200"><defs><style type="text/css"></style></defs><path d="M811.004525 1001.198422a24.225382 19.806363 0 1 0 48.450764 0 24.225382 19.806363 0 1 0-48.450764 0Z" fill="#A9D38D" p-id="891"></path><path d="M132.288896 181.760788a483.25764 181.760788 0 1 0 966.515281 0 483.25764 181.760788 0 1 0-966.515281 0Z" fill="#A9D38D" p-id="892"></path><path d="M811.057342 959.772315c-28.345106 0-52.922601-9.084518-61.144442-22.588056a4.401414 4.401414 0 1 1 7.517615-4.577471c5.545782 9.11973 25.757074 18.362699 53.626827 18.362699 29.929615 0 51.320486-10.563393 54.7888-20.827491a4.403174 4.403174 0 0 1 8.345081 2.816905c-5.352119 15.792273-31.302856 26.813413-63.133881 26.813414zM811.057342 920.44128c-40.915544 0-76.79587-13.591566-87.271235-33.02821a4.401414 4.401414 0 0 1 7.746489-4.17254c8.802828 16.461288 42.253573 28.397922 79.524746 28.397922 38.397935 0 72.922625-12.88734 80.28179-29.929614a4.406696 4.406696 0 1 1 8.080995 3.521131c-8.943673 20.616223-45.281746 35.211311-88.362785 35.211311zM820.652424 873.962349c-61.320498 0-117.007187-16.285231-145.299475-42.482446a4.403174 4.403174 0 1 1 5.985923-6.461276c26.725385 24.771157 80.105733 40.140895 139.313552 40.140895 75.176149 0 139.524821-24.84158 152.993147-59.084581a4.401414 4.401414 0 0 1 8.18663 3.221835c-14.735934 37.464835-82.517708 64.665573-161.179777 64.665573zM801.972824 812.07847c-57.940213 0-112.834647-10.563393-154.560051-29.753558a4.401414 4.401414 0 0 1 3.679582-7.992968c40.598642 18.661995 94.190257 28.943698 150.898074 28.943698 58.098663 0 112.500139-10.704239 153.398078-30.123276 39.87681-18.92608 61.778245-43.697237 61.778245-69.771214a46.690199 46.690199 0 0 0-1.21479-10.563393 4.401414 4.401414 0 0 1 8.573954-1.989439 55.581055 55.581055 0 0 1 1.443664 12.517621c0 29.647924-23.732424 57.253592-66.901491 77.711364-41.989489 20.01763-97.799417 31.021165-157.095265 31.021165z" fill="#7FA362" p-id="893"></path><path d="M695.159311 755.42347c-136.320591 0-255.563697-39.735965-289.982753-96.619838a4.403174 4.403174 0 0 1 7.53522-4.559864c32.90497 54.38387 149.04948 92.376875 282.447533 92.376875 78.380379 0 151.989625-12.992974 207.271384-36.584553 54.10218-23.081014 83.908555-53.309925 83.908554-85.123345a51.54936 51.54936 0 0 0-1.760565-13.151424 4.401414 4.401414 0 0 1 8.503531-2.253524 60.334582 60.334582 0 0 1 2.024651 15.404948c0 35.563424-31.69018 68.662057-89.243069 93.221947-56.338098 23.978903-131.17974 37.288779-210.704486 37.288778z" fill="#7FA362" p-id="894"></path><path d="M632.588811 644.736714c-99.612799 0-193.327704-13.204242-263.873566-37.165539-72.024737-24.471861-111.707885-57.623311-111.707885-93.309975a4.401414 4.401414 0 0 1 8.802828 0c0 31.197222 38.53878 62.16557 105.721962 85.000105 69.753607 23.644395 162.46499 36.672581 261.056661 36.672581s191.391082-13.028185 261.039056-36.707792c67.200787-22.887352 105.721962-53.802884 105.721962-85.000105a45.950761 45.950761 0 0 0-8.450715-25.633835 4.401414 4.401414 0 0 1 7.306347-4.911978 54.577532 54.577532 0 0 1 10.052829 30.616235c0 35.721875-39.665542 68.855719-111.707884 93.309975-70.563468 23.926086-164.260767 37.130328-263.961595 37.130328z" fill="#7FA362" p-id="895"></path><path d="M574.490148 515.141483c-114.683241 0-222.553092-13.186636-303.750376-37.112722-82.83461-24.419044-128.521286-57.588099-128.521286-93.309975a45.246535 45.246535 0 0 1 4.454231-19.366221 4.401414 4.401414 0 0 1 7.975362 3.732399 36.531735 36.531735 0 0 0-3.644371 15.563399c0 31.109193 44.524703 62.059936 122.148039 84.947289 80.44024 23.679607 187.429809 36.743003 301.338401 36.743003s220.845344-13.045791 301.250373-36.760609c77.623336-22.887352 122.148039-53.838095 122.148038-84.947288 0-18.274671-15.422554-36.79582-44.595125-53.591616a4.401414 4.401414 0 1 1 4.383808-7.623249c32.517646 18.714812 49.014145 39.313429 49.014145 61.214865 0 35.809903-45.616254 68.978959-128.521286 93.309974-81.179678 24.014114-189.04953 37.20075-303.679953 37.200751z" fill="#7FA362" p-id="896"></path><path d="M502.958369 367.905385c-133.626926 0-259.331307-17.411993-353.873677-49.031751C52.975418 286.760918 0.052817 243.4334 0.052817 196.884047s52.922601-89.876872 149.031875-121.989588c94.595188-31.69018 220.299568-49.031751 353.873677-49.031751s259.331307 17.411993 353.873678 49.031751c96.179697 32.112716 148.996663 75.440234 148.996663 121.989588s-52.816967 89.876872-148.943846 121.989587c-94.595188 31.619757-220.299568 49.031751-353.926495 49.031751z m0-333.257455c-132.711432 0-257.41229 17.253542-351.144801 48.574004C60.915568 113.59169 8.802828 155.017798 8.802828 196.866441s52.130346 83.274751 143.01074 113.644507c93.73251 31.320461 218.433369 48.574004 351.144801 48.574004s257.41229-17.253542 351.144801-48.574004c90.880394-30.35215 142.922712-71.778258 142.922712-113.626901s-52.130346-83.274751-143.01074-113.644507c-93.644482-31.267644-218.345341-48.574004-351.056773-48.574004zM811.057342 1023.997746a30.492995 30.492995 0 0 1-19.366221-6.637332 21.126787 21.126787 0 0 1 0-33.820464 31.355673 31.355673 0 0 1 38.573991 0 21.126787 21.126787 0 0 1 0 33.820464 30.492995 30.492995 0 0 1-19.20777 6.637332z m0-38.204272a21.778196 21.778196 0 0 0-13.714806 4.559865 12.323959 12.323959 0 0 0 0 20.193687 22.887352 22.887352 0 0 0 27.429612 0 12.323959 12.323959 0 0 0 0-20.193687 21.795802 21.795802 0 0 0-13.714806-4.559865z" fill="#7FA362" p-id="897"></path><path d="M285.951058 133.486081c10.193675 0 10.21128-15.84509 0-15.84509s-10.21128 15.84509 0 15.84509zM557.852803 224.119996c10.193675 0 10.21128-15.84509 0-15.84509s-10.21128 15.84509 0 15.84509zM776.638285 127.236073c10.193675 0 10.21128-15.84509 0-15.84509s-10.21128 15.84509 0 15.84509zM914.156061 252.236228c10.193675 0 10.21128-15.84509 0-15.84509s-10.21128 15.84509 0 15.84509z" fill="#65844A" p-id="898"></path><path d="M301.602486 121.461418c6.795783 0 6.813389-10.563393 0-10.563393s-6.813389 10.563393 0 10.563393zM532.852772 212.183361c6.795783 0 6.813389-10.563393 0-10.563393s-6.813389 10.563393 0 10.563393zM292.201066 265.229202c6.795783 0 6.813389-10.563393 0-10.563394s-6.813389 10.563393 0 10.563394zM626.620494 121.461418c6.795783 0 6.813389-10.563393 0-10.563393s-6.813389 10.563393 0 10.563393zM764.120664 262.113001c6.795783 0 6.813389-10.563393 0-10.563394s-6.813389 10.563393 0 10.563394z" fill="#FFFFFF" p-id="899"></path></svg>